<?xml version="1.0" encoding="UTF-8"?>
<svg width="120" height="120" viewBox="0 0 120 120" xmlns="http://www.w3.org/2000/svg">
  <defs>
    <linearGradient id="goldGradient" x1="0%" y1="0%" x2="100%" y2="100%">
      <stop offset="0%" style="stop-color:#d4af37;stop-opacity:1" />
      <stop offset="100%" style="stop-color:#b8a165;stop-opacity:1" />
    </linearGradient>
  </defs>
  
  <!-- Outer shield -->
  <path d="M60 10 C80 10, 95 25, 95 45 L95 75 C95 85, 85 95, 75 100 L60 110 L45 100 C35 95, 25 85, 25 75 L25 45 C25 25, 40 10, 60 10 Z" 
        fill="url(#goldGradient)" stroke="#1a2235" stroke-width="2"/>
  
  <!-- Inner shield -->
  <path d="M60 20 C75 20, 85 30, 85 45 L85 70 C85 78, 78 85, 70 88 L60 95 L50 88 C42 85, 35 78, 35 70 L35 45 C35 30, 45 20, 60 20 Z" 
        fill="#1a2235" stroke="#b8a165" stroke-width="1"/>
  
  <!-- Monogram KP -->
  <text x="60" y="55" font-family="serif" font-size="24" font-weight="bold" 
        text-anchor="middle" dominant-baseline="middle" fill="#b8a165">KP</text>
  
  <!-- Crown elements -->
  <polygon points="50,25 55,35 60,25 65,35 70,25" fill="#b8a165"/>
  <rect x="48" y="23" width="24" height="3" fill="#b8a165"/>
  
  <!-- Decorative elements -->
  <circle cx="45" cy="65" r="3" fill="#b8a165"/>
  <circle cx="75" cy="65" r="3" fill="#b8a165"/>
  
  <!-- Base flourish -->
  <path d="M45 85 Q60 90 75 85" stroke="#b8a165" stroke-width="2" fill="none"/>
</svg>